<svg width="191" height="190" viewBox="0 0 191 190" fill="none" xmlns="http://www.w3.org/2000/svg">
<path d="M95 190C147.467 190 190 147.467 190 95C190 42.5329 147.467 0 95 0C42.5329 0 0 42.5329 0 95C0 147.467 42.5329 190 95 190Z" fill="#E8DDD9" fill-opacity="0.53"/>
<path d="M96 174C139.63 174 175 138.63 175 95C175 51.3695 139.63 16 96 16C52.3695 16 17 51.3695 17 95C17 138.63 52.3695 174 96 174Z" stroke="#808000" stroke-width="2"/>
<path d="M80.252 101.881H111.754V105.417H80.252V101.881Z" fill="#808000"/>
<path d="M103.234 108.953H88.7717L96.0029 119.909L103.234 108.953Z" fill="#808000"/>
<path d="M87.2524 113.025V133.169L93.899 123.097L87.2524 113.025Z" fill="#808000"/>
<path d="M88.7717 137.24H103.234L96.0029 126.285L88.7717 137.24Z" fill="#808000"/>
<path d="M71.5014 131.936C71.5014 134.866 69.1506 137.24 66.2511 137.24C63.3517 137.24 61.0008 134.866 61.0008 131.936C61.0008 129.007 63.3517 126.633 66.2511 126.633C69.1506 126.633 71.5014 129.007 71.5014 131.936Z" fill="#808000"/>
<path d="M56.1616 91.509L62.8398 71.2672C62.9782 70.8477 63.2679 70.4955 63.6508 70.2805L95.1526 52.6009C95.6816 52.3039 96.3242 52.3039 96.8532 52.6009L128.355 70.2805C128.738 70.4955 129.028 70.8477 129.166 71.2672L135.844 91.509L141.97 92.746L142.845 89.1825L139.587 88.6516C138.943 88.5489 138.408 88.0913 138.201 87.4655L131.84 68.1914L96.0029 48.0774L60.1659 68.1914L53.8047 87.4724C53.5979 88.0982 53.063 88.5558 52.4187 88.6585L49.1611 89.1894L50.0362 92.7538L56.1616 91.509Z" fill="#808000"/>
<path d="M59.2054 137.24H59.2962C59.2808 137.221 59.2645 137.205 59.2508 137.186C59.2371 137.205 59.2208 137.221 59.2054 137.24Z" fill="#808000"/>
<path d="M64.501 119.561C64.501 122.491 62.1502 124.865 59.2507 124.865C56.3513 124.865 54.0004 122.491 54.0004 119.561C54.0004 116.632 56.3513 114.257 59.2507 114.257C62.1502 114.257 64.501 116.632 64.501 119.561Z" fill="#808000"/>
<path d="M57.5006 131.936C57.5006 134.866 55.1498 137.24 52.2503 137.24C49.3508 137.24 47 134.866 47 131.936C47 129.007 49.3508 126.633 52.2503 126.633C55.1498 126.633 57.5006 129.007 57.5006 131.936Z" fill="#808000"/>
<path d="M104.753 133.169V113.025L98.1068 123.097L104.753 133.169Z" fill="#808000"/>
<path d="M97.753 72.0769V77.1296H102.755C102.115 74.6564 100.202 72.7244 97.753 72.0769Z" fill="#808000"/>
<path d="M142.414 130.31C141.931 130.178 141.528 129.844 141.306 129.392C141.083 128.94 141.062 128.413 141.248 127.945C141.741 126.728 141.522 125.337 140.682 124.335C139.841 123.331 138.519 122.884 137.25 123.174C135.982 123.464 134.979 124.443 134.647 125.713C134.516 126.201 134.186 126.609 133.739 126.835C133.293 127.063 132.77 127.085 132.307 126.892C131.382 126.528 130.347 126.576 129.458 127.024C128.57 127.474 127.911 128.282 127.647 129.249C127.516 129.737 127.185 130.145 126.738 130.37C126.292 130.599 125.769 130.621 125.307 130.428C123.996 129.891 122.494 130.203 121.5 131.22C120.505 132.236 120.215 133.757 120.762 135.074C121.311 136.392 122.59 137.246 124.005 137.24H141.506C143.257 137.243 144.74 135.932 144.97 134.178C145.2 132.423 144.106 130.768 142.414 130.31Z" fill="#808000"/>
<path d="M97.753 85.7191C100.202 85.0716 102.115 83.1397 102.755 80.6655H97.753V85.7191Z" fill="#808000"/>
<path d="M124.005 126.633C124.314 126.633 124.622 126.654 124.928 126.696C126.335 124.191 129.101 122.794 131.929 123.16C132.165 122.749 132.442 122.361 132.755 122.005V93.3296L126.059 73.0386L96.0029 56.1687L65.9469 73.0386L59.2507 93.3296V110.721C64.0814 110.727 67.9952 114.682 68.0012 119.561C67.9978 120.816 67.7269 122.055 67.2065 123.194C70.335 123.514 73.0473 125.52 74.2924 128.437C75.5383 131.353 75.1221 134.722 73.2062 137.24H83.7522V108.953H78.5018C77.5354 108.953 76.7517 108.161 76.7517 107.185V100.113C76.7517 99.1368 77.5354 98.3452 78.5018 98.3452H113.504C114.47 98.3452 115.254 99.1368 115.254 100.113V107.185C115.254 108.161 114.47 108.953 113.504 108.953H108.254V137.24H117.977C117.348 136.171 117.011 134.95 117.004 133.704C117.004 129.799 120.139 126.633 124.005 126.633ZM80.2519 80.6655H76.7517V77.1296H80.2519V80.6655ZM96.0029 89.5053C90.2039 89.5053 85.5023 84.7565 85.5023 78.8976C85.5023 73.0395 90.2039 68.2898 96.0029 68.2898C101.802 68.2898 106.503 73.0395 106.503 78.8976C106.498 84.7539 101.8 89.5002 96.0029 89.5053ZM115.254 80.6655H111.754V77.1296H115.254V80.6655Z" fill="#808000"/>
<path d="M94.2528 85.7191V80.6655H89.2511C89.8912 83.1397 91.8037 85.0716 94.2528 85.7191Z" fill="#808000"/>
<path d="M89.2511 77.1296H94.2528V72.0769C91.8037 72.7244 89.8912 74.6564 89.2511 77.1296Z" fill="#808000"/>
</svg>
