<svg width="60" height="60" viewBox="0 0 60 60" fill="none" xmlns="http://www.w3.org/2000/svg">
<path d="M48.3984 11.7188H11.4844V50.0391H48.3984V11.7188Z" fill="#DCDCDC"/>
<path d="M35.7422 30C35.7422 33.1713 33.1713 35.7422 30 35.7422C26.8287 35.7422 24.2578 33.1713 24.2578 30C24.2578 26.8287 26.8287 24.2578 30 24.2578C33.1713 24.2578 35.7422 26.8287 35.7422 30Z" fill="#575555"/>
<path d="M43.4289 19.8404C43.1528 19.0924 42.7124 18.4154 42.1403 17.8596C41.5845 17.2875 40.908 16.8471 40.1595 16.571C39.5526 16.3354 38.6406 16.0547 36.9611 15.9783C35.1442 15.8954 34.5995 15.8775 29.9999 15.8775C25.3998 15.8775 24.8552 15.895 23.0387 15.9778C21.3592 16.0547 20.4468 16.3354 19.8403 16.571C19.0919 16.8471 18.4149 17.2875 17.8595 17.8596C17.2874 18.4154 16.847 19.092 16.5705 19.8404C16.3348 20.4473 16.0541 21.3598 15.9777 23.0393C15.8949 24.8557 15.877 25.4004 15.877 30.0005C15.877 34.6001 15.8949 35.1448 15.9777 36.9616C16.0541 38.6412 16.3348 39.5531 16.5705 40.16C16.847 40.9085 17.287 41.585 17.8591 42.1409C18.4149 42.713 19.0914 43.1534 19.8399 43.4295C20.4468 43.6656 21.3592 43.9463 23.0387 44.0227C24.8552 44.1055 25.3994 44.123 29.9994 44.123C34.6 44.123 35.1447 44.1055 36.9606 44.0227C38.6402 43.9463 39.5526 43.6656 40.1595 43.4295C41.6619 42.8498 42.8493 41.6625 43.4289 40.16C43.6646 39.5531 43.9452 38.6412 44.0221 36.9616C44.105 35.1448 44.1224 34.6001 44.1224 30.0005C44.1224 25.4004 44.105 24.8557 44.0221 23.0393C43.9457 21.3598 43.665 20.4473 43.4289 19.8404ZM29.9999 38.8458C25.1143 38.8458 21.1537 34.8857 21.1537 30C21.1537 25.1143 25.1143 21.1542 29.9999 21.1542C34.8852 21.1542 38.8457 25.1143 38.8457 30C38.8457 34.8857 34.8852 38.8458 29.9999 38.8458ZM39.1955 22.8717C38.0539 22.8717 37.1282 21.9461 37.1282 20.8044C37.1282 19.6628 38.0539 18.7372 39.1955 18.7372C40.3371 18.7372 41.2627 19.6628 41.2627 20.8044C41.2622 21.9461 40.3371 22.8717 39.1955 22.8717Z" fill="#575555"/>
<path d="M30 0C13.434 0 0 13.434 0 30C0 46.566 13.434 60 30 60C46.566 60 60 46.566 60 30C60 13.434 46.566 0 30 0ZM47.1226 37.1021C47.0393 38.936 46.7477 40.188 46.322 41.2839C45.4272 43.5979 43.5979 45.4272 41.2839 46.322C40.1884 46.7477 38.936 47.0388 37.1026 47.1226C35.2657 47.2064 34.6788 47.2266 30.0005 47.2266C25.3216 47.2266 24.7352 47.2064 22.8979 47.1226C21.0645 47.0388 19.812 46.7477 18.7166 46.322C17.5666 45.8895 16.5258 45.2115 15.6652 44.3348C14.7889 43.4747 14.111 42.4334 13.6785 41.2839C13.2527 40.1884 12.9612 38.936 12.8779 37.1026C12.7931 35.2652 12.7734 34.6784 12.7734 30C12.7734 25.3216 12.7931 24.7348 12.8774 22.8979C12.9607 21.064 13.2518 19.812 13.6775 18.7161C14.1101 17.5666 14.7885 16.5253 15.6652 15.6652C16.5253 14.7885 17.5666 14.1105 18.7161 13.678C19.812 13.2523 21.064 12.9612 22.8979 12.8774C24.7348 12.7936 25.3216 12.7734 30 12.7734C34.6784 12.7734 35.2652 12.7936 37.1021 12.8779C38.936 12.9612 40.188 13.2523 41.2839 13.6775C42.4334 14.1101 43.4747 14.7885 44.3353 15.6652C45.2115 16.5258 45.8899 17.5666 46.322 18.7161C46.7482 19.812 47.0393 21.064 47.1231 22.8979C47.2069 24.7348 47.2266 25.3216 47.2266 30C47.2266 34.6784 47.2069 35.2652 47.1226 37.1021Z" fill="#575555"/>
</svg>
