<svg width="60" height="60" viewBox="0 0 60 60" fill="none" xmlns="http://www.w3.org/2000/svg">
<path d="M51.4287 16.5306H8.57153V45.3061H51.4287V16.5306Z" fill="#DCDCDC"/>
<path d="M29.9235 0C13.3978 0 0 13.3971 0 29.9235C0 46.4498 13.3978 59.8469 29.9235 59.8469C46.4492 59.8469 59.8469 46.4498 59.8469 29.9235C59.8469 13.3971 46.4492 0 29.9235 0ZM45.1022 33.1598C46.4969 34.522 47.9725 35.8041 49.2245 37.3071C49.7792 37.972 50.302 38.6596 50.7 39.4329C51.2682 40.5355 50.7551 41.7447 49.7682 41.8102L43.6378 41.809C42.0545 41.94 40.7945 41.3014 39.7323 40.219C38.8843 39.3563 38.0976 38.4349 37.2808 37.5429C36.9471 37.1767 36.5957 36.832 36.1769 36.5608C35.3412 36.0171 34.6151 36.1837 34.1363 37.0567C33.6484 37.9451 33.5369 38.9296 33.4904 39.9184C33.4237 41.3639 32.9878 41.7416 31.5374 41.8096C28.4382 41.9547 25.4976 41.4845 22.7645 39.922C20.3535 38.5439 18.4873 36.5988 16.8612 34.3965C13.6947 30.1035 11.2696 25.3916 9.09061 20.5445C8.6002 19.4529 8.95898 18.8688 10.1633 18.8461C12.1641 18.8076 14.1649 18.8125 16.1657 18.8443C16.98 18.8571 17.5188 19.3231 17.8316 20.0914C18.9129 22.7516 20.2384 25.2827 21.8994 27.63C22.342 28.2551 22.7939 28.8784 23.4373 29.3198C24.1476 29.8071 24.6888 29.6461 25.0237 28.8533C25.238 28.3494 25.3304 27.8106 25.3769 27.2706C25.5361 25.421 25.5551 23.572 25.2796 21.7298C25.1082 20.5769 24.4598 19.8325 23.3106 19.6145C22.7253 19.5037 22.811 19.2869 23.0957 18.9527C23.5898 18.3747 24.0527 18.0171 24.9778 18.0171L31.9041 18.0159C32.9957 18.2302 33.2406 18.72 33.3888 19.8196L33.3949 27.5167C33.382 27.9422 33.6086 29.2035 34.3727 29.482C34.9849 29.6841 35.389 29.1931 35.7551 28.8055C37.4161 27.0429 38.5996 24.9625 39.6594 22.8092C40.1271 21.8596 40.5306 20.8769 40.9225 19.8925C41.2139 19.1645 41.6669 18.8063 42.4886 18.8186L49.1584 18.8265C49.3549 18.8265 49.5545 18.8284 49.7492 18.862C50.8733 19.0543 51.1812 19.538 50.8335 20.6345C50.2861 22.3573 49.2227 23.7924 48.1831 25.2312C47.0688 26.7716 45.8804 28.2582 44.7771 29.8053C43.7633 31.2196 43.8435 31.9316 45.1022 33.1598Z" fill="#575555"/>
</svg>
