<svg width="191" height="190" viewBox="0 0 191 190" fill="none" xmlns="http://www.w3.org/2000/svg">
<path d="M95 190C147.467 190 190 147.467 190 95C190 42.5329 147.467 0 95 0C42.5329 0 0 42.5329 0 95C0 147.467 42.5329 190 95 190Z" fill="#E8DDD9" fill-opacity="0.53"/>
<path d="M96 174C139.63 174 175 138.63 175 95C175 51.3695 139.63 16 96 16C52.3695 16 17 51.3695 17 95C17 138.63 52.3695 174 96 174Z" stroke="#808000" stroke-width="2"/>
<path d="M108.765 71.2727H107.86C107.813 71.2727 107.783 71.3074 107.758 71.3485C108.083 71.4064 108.416 71.4401 108.765 71.4548C108.893 71.459 108.893 71.2727 108.765 71.2727Z" fill="#808000"/>
<path d="M150.387 132.238C150.354 132.114 150.414 132.069 150.521 132.138C150.525 132.14 150.528 132.142 150.531 132.143C150.639 132.211 150.7 132.166 150.664 132.043C149.983 129.618 148.691 127.531 147.898 125.22C147.857 125.098 147.886 125.082 147.963 125.186C148.135 125.416 148.307 125.647 148.48 125.875C148.557 125.978 148.633 126.052 148.651 126.04C148.669 126.028 148.629 125.93 148.564 125.819C147.614 124.209 146.663 122.598 145.713 120.988C145.648 120.878 145.63 120.765 145.673 120.738C145.717 120.71 145.813 120.772 145.887 120.877C146.097 121.168 146.305 121.461 146.515 121.752C146.589 121.857 146.667 121.936 146.684 121.929C146.702 121.923 146.691 121.831 146.656 121.725C146.622 121.619 146.614 121.512 146.641 121.485C146.666 121.459 146.758 121.511 146.848 121.603C147.272 122.042 147.701 122.486 148.178 122.979C148.267 123.072 148.288 123.053 148.226 122.94C148.117 122.743 148.02 122.565 147.928 122.398C147.865 122.285 147.833 122.161 147.856 122.135C147.878 122.108 147.979 122.125 148.085 122.199C148.61 122.572 149.14 122.902 149.702 123.3C149.808 123.374 149.855 123.263 149.811 123.159C149.766 123.054 150.074 122.881 149.953 122.857C149.38 122.743 148.887 121.975 148.887 121.975C148.08 120.681 147.058 119.483 146.271 118.176C145.195 116.391 144.404 114.459 144.041 112.384C143.997 112.127 143.971 111.863 143.956 111.6C143.949 111.471 143.916 111.438 143.896 111.526C143.876 111.613 143.823 111.586 143.781 111.463C143.27 109.98 142.782 108.561 142.295 107.147C142.253 107.025 142.228 106.921 142.239 106.914C142.251 106.906 142.306 106.994 142.364 107.109C142.57 107.525 142.776 107.94 142.983 108.358C143.041 108.472 143.105 108.558 143.13 108.551C143.152 108.542 143.147 108.448 143.115 108.341C143.096 108.276 143.076 108.212 143.046 108.153C141.781 105.642 140.525 103.127 139.231 100.632C138.977 100.14 138.618 99.6793 138.22 99.295C137.012 98.1317 135.756 97.0189 134.532 95.8714C134.098 95.464 133.707 95.008 133.289 94.5807C133.073 94.3606 132.866 94.1196 132.614 93.9522C130.952 92.8552 129.47 91.5877 128.23 89.9917C126.579 87.8641 124.327 86.4386 122.085 85.0258C121.546 84.6868 121.014 84.3226 120.436 84.0657C119.669 83.7246 118.882 83.3561 118.068 83.2193C116.898 83.0224 115.689 83.0824 114.512 82.9192C113.664 82.8013 112.823 82.5497 112.01 82.2655C110.066 81.5864 108.148 80.8358 106.207 80.1494C104.934 79.6988 104.22 78.5766 103.264 77.7428C103.208 77.6933 103.176 77.6154 103.149 77.5312C103.11 77.408 103.103 77.2848 103.133 77.2554C103.163 77.2259 103.28 77.248 103.395 77.3048C103.703 77.4596 104.015 77.6154 104.348 77.7828C104.463 77.8396 104.494 77.8028 104.418 77.6986C104.337 77.5859 104.259 77.4785 104.181 77.3733C104.105 77.269 104.054 77.1659 104.067 77.1427C104.079 77.1195 104.183 77.1438 104.299 77.1974C104.82 77.4364 105.341 77.6765 105.862 77.9154C105.978 77.9691 106.094 77.9923 106.119 77.9691C106.145 77.9449 106.11 77.8365 106.044 77.727C105.983 77.628 105.915 77.5164 105.829 77.3754C105.762 77.2659 105.804 77.2153 105.923 77.2627C106.762 77.5996 107.507 77.8986 108.244 78.1944C108.362 78.2418 108.463 78.2681 108.471 78.2523C108.479 78.2365 108.393 78.1744 108.279 78.1144C107.645 77.7712 107.012 77.4291 106.378 77.0859C106.267 77.0248 106.19 76.9416 106.208 76.9006C106.228 76.8595 106.341 76.8595 106.462 76.9006C106.722 76.989 106.982 77.0774 107.242 77.1659C107.363 77.2069 107.471 77.2174 107.484 77.188C107.496 77.1595 107.427 77.0701 107.329 76.9879C107.264 76.9343 107.199 76.8815 107.135 76.8279C107.035 76.7469 106.964 76.6521 106.973 76.6163C106.983 76.5805 107.093 76.5658 107.219 76.5837C107.397 76.6079 107.579 76.6332 107.772 76.6584C107.898 76.6753 107.922 76.6226 107.824 76.5405C107.768 76.4953 107.714 76.4489 107.656 76.4005C107.557 76.3184 107.568 76.2005 107.687 76.1573C108.418 75.891 109.074 76.2879 109.799 76.4058C109.926 76.4258 109.944 76.3721 109.84 76.2984C109.148 75.8078 108.507 75.3551 107.872 74.9045C107.766 74.8308 107.686 74.7592 107.692 74.7445C107.698 74.7298 107.798 74.7582 107.915 74.8066L109.11 75.2962C109.227 75.3446 109.337 75.3603 109.352 75.3298C109.368 75.3004 109.292 75.2214 109.185 75.153C108.713 74.8572 108.24 74.5624 107.768 74.2665C107.66 74.2002 107.579 74.1202 107.588 74.0907C107.597 74.0613 107.704 74.0665 107.827 74.1023C107.943 74.136 108.065 74.1707 108.196 74.2086C108.319 74.2434 108.371 74.1792 108.299 74.0728C107.774 73.3191 106.835 73.179 106.213 72.5958C106.12 72.5084 106.151 72.46 106.273 72.5C106.395 72.5411 106.525 72.5842 106.677 72.6348C106.798 72.6748 106.815 72.6442 106.713 72.5663C106.644 72.5137 106.581 72.4653 106.518 72.4158C106.416 72.3379 106.438 72.2663 106.565 72.2579C106.734 72.2463 106.892 72.2347 107.068 72.2221C107.195 72.2137 107.2 72.1715 107.08 72.1305C106.859 72.0557 106.665 71.9862 106.478 71.923C106.357 71.882 106.264 71.8231 106.27 71.7978C106.276 71.7725 106.381 71.761 106.507 71.7862C106.842 71.8547 107.179 71.9041 107.515 71.9463C107.579 71.9536 107.645 71.881 107.713 71.8462C107.815 71.7947 107.837 71.6157 107.764 71.562C107.717 71.5273 107.725 71.4209 107.766 71.3472C107.25 71.2546 106.767 71.0788 106.338 70.6777C106.244 70.5903 106.276 70.5198 106.404 70.5271C106.516 70.5334 106.631 70.5387 106.756 70.5461C106.884 70.5534 106.892 70.5177 106.775 70.4661C106.752 70.4555 106.728 70.445 106.708 70.4355C106.591 70.3839 106.593 70.306 106.713 70.2618C107.191 70.085 107.678 69.906 108.166 69.726C108.286 69.6818 108.378 69.6217 108.372 69.5923C108.366 69.5628 108.257 69.5333 108.13 69.5281C108.095 69.5259 108.058 69.5249 108.019 69.5228C107.891 69.5165 107.851 69.4291 107.928 69.327C108.083 69.1217 108.222 68.9374 108.345 68.7743C108.421 68.6722 108.426 68.5258 108.359 68.4437C108.31 68.3837 108.27 68.3216 108.283 68.2742C108.323 68.1384 108.488 67.9963 108.632 67.9447C108.912 67.8457 109.2 67.7805 109.482 67.6425C109.595 67.5867 109.581 67.5246 109.452 67.5183C108.693 67.4825 107.934 67.4457 107.174 67.4099C107.047 67.4036 106.939 67.3646 106.935 67.3225C106.931 67.2804 106.975 67.2172 107.036 67.1825C107.097 67.1477 107.045 67.0983 106.92 67.0719C106.79 67.0446 106.66 67.0183 106.531 66.9919C106.406 66.9656 106.304 66.9182 106.304 66.8856C106.304 66.853 106.406 66.8182 106.533 66.8088C106.815 66.7877 107.105 66.7666 107.436 66.7414C107.563 66.7319 107.564 66.7066 107.439 66.6845C106.898 66.5898 106.404 66.5035 105.917 66.4171C105.79 66.395 105.684 66.3445 105.68 66.3034C105.675 66.2624 105.772 66.2066 105.896 66.1771C105.947 66.1655 105.998 66.1539 106.049 66.1424C106.172 66.1139 106.185 66.0381 106.075 65.9729C105.175 65.4402 104.259 64.899 103.223 64.2863C103.112 64.2211 103.126 64.1789 103.253 64.1937C104.052 64.2926 104.759 64.4674 105.411 64.1495C105.526 64.0937 105.51 64.0168 105.384 63.9947C105.145 63.9537 104.894 63.9094 104.642 63.8652C104.516 63.8431 104.427 63.8 104.444 63.7694C104.461 63.7378 104.375 63.682 104.253 63.6441C103.877 63.5262 103.502 63.4083 103.126 63.2894C103.004 63.2515 102.91 63.1799 102.916 63.1304C102.923 63.0809 103.03 63.0314 103.157 63.0199C103.444 62.9935 103.729 62.9672 104.016 62.9409C104.143 62.9293 104.244 62.9009 104.243 62.8777C104.242 62.8546 104.138 62.8188 104.012 62.7988C103.681 62.7451 103.35 62.6924 103.019 62.6388C102.893 62.6187 102.792 62.564 102.794 62.5166C102.796 62.4693 102.9 62.4156 103.026 62.3956C103.238 62.3629 103.451 62.3303 103.663 62.2966C103.79 62.2777 103.838 62.2176 103.77 62.164C103.702 62.1103 103.642 62.025 103.634 61.9734C103.627 61.9218 103.721 61.8555 103.845 61.825C104.731 61.6028 105.62 61.3786 106.562 61.1417C106.686 61.1101 106.683 61.0964 106.556 61.1101C105.449 61.2291 105.16 61.2502 105.027 61.1133C104.937 61.0217 105.009 60.8627 105.125 60.808C105.382 60.6838 105.626 60.5437 105.567 60.1595C105.548 60.0321 105.405 59.9405 105.277 59.9458C105.068 59.9553 104.831 59.9658 104.595 59.9953C103.709 60.1058 103.632 60.1205 103.289 59.4657C103.23 59.352 103.276 59.2152 103.391 59.1604C103.782 58.9772 104.173 58.793 104.563 58.6098C104.679 58.5551 104.762 58.4845 104.748 58.4519C104.735 58.4193 104.627 58.4287 104.509 58.4772C104.222 58.594 103.939 58.7193 103.642 58.7888C103.257 58.8793 102.814 59.1762 102.494 58.6393C102.473 58.6046 102.392 58.6067 102.34 58.5898C100.618 58.0108 98.8958 57.436 97.1773 56.8496C96.8751 56.7464 96.5833 56.6148 96.3061 56.418C96.2019 56.3443 96.2259 56.2822 96.353 56.2906L96.4853 56.299C96.6125 56.3074 96.7261 56.2948 96.7386 56.2727C96.7511 56.2506 96.6698 56.1821 96.5562 56.1221C96.1102 55.8842 95.6631 55.6473 95.2171 55.4094C95.0993 55.3494 95.016 55.282 95.0243 55.2589C95.0337 55.2357 95.1431 55.2273 95.2702 55.242C95.3067 55.2462 95.3421 55.2504 95.3755 55.2536C95.5026 55.2673 95.511 55.2357 95.3942 55.1831C94.4032 54.7304 93.3246 54.2377 92.2398 53.7418C92.123 53.6892 92.0365 53.6081 92.047 53.5618C92.0563 53.5155 92.1678 53.4828 92.295 53.4892C92.567 53.5029 92.8546 53.5165 93.2079 53.5344C93.335 53.5407 93.3381 53.5229 93.2131 53.4944C93.0057 53.4481 92.8358 53.4092 92.6566 53.3691C92.5315 53.3407 92.5232 53.2702 92.6368 53.2102C93.1818 52.9249 93.6758 52.667 94.1489 52.4196C94.2625 52.3606 94.2521 52.3269 94.126 52.348C93.5101 52.4522 92.89 52.5533 92.27 52.6585C92.1439 52.6796 92.0313 52.6501 92.0178 52.6038C92.0042 52.5585 92.0553 52.4606 92.1314 52.4122C92.2074 52.3638 92.1668 52.2606 92.0428 52.2343C91.7093 52.1637 91.3863 52.0174 91.0653 51.95C91.0653 51.95 91.9042 51.6974 90.6953 51.5247C89.5646 51.3626 88.6017 50.9383 87.645 50.313C86.8676 49.8045 85.9349 49.5097 85.0397 49.2181C83.9716 48.8696 82.868 48.6317 81.7842 48.3327C81.3809 48.2222 80.9942 48.0053 80.5868 47.9611C80.074 47.9063 79.553 47.9327 79.0882 47.9421C78.961 47.9442 78.7714 47.8863 78.6703 47.8074C78.5619 47.7221 78.4587 47.6453 78.3545 47.6432C76.1088 47.6021 73.8651 47.6453 71.6756 48.2327C71.2389 48.3496 70.8377 48.5928 70.4063 48.737C70.2406 48.7928 69.9863 48.8128 69.8633 48.7233C69.4163 48.3938 69.0046 48.0148 68.5867 47.6474C68.395 47.4789 68.2095 47.3 68.024 47.1231C67.9312 47.0347 67.826 46.982 67.7885 47.0041C67.751 47.0262 67.7207 47.1389 67.7218 47.2557C67.7228 47.3273 67.7259 47.3979 67.7437 47.4652C67.85 47.879 67.9761 48.2874 68.0959 48.697C68.3439 49.5476 68.3387 49.5318 67.4998 49.8076C67.1382 49.9266 66.7495 50.0666 66.4702 50.3109C66.094 50.6341 65.7136 50.6162 65.2905 50.5983C64.9299 50.5835 64.5662 50.6351 64.2036 50.6393C63.0333 50.652 61.9192 50.4151 60.873 49.8676C60.8136 49.8361 60.7427 49.8266 60.6708 49.8213C60.5551 49.8129 60.4676 49.9024 60.4749 50.0203C60.479 50.095 60.4905 50.1687 60.5259 50.2235C60.9845 50.9478 61.4649 51.6395 62.3121 51.9795C62.7727 52.1648 63.2083 52.4322 63.6252 52.708C64.3536 53.1912 64.5183 53.7639 64.2786 54.6114C63.9159 55.8989 63.5012 57.1802 63.2688 58.4919C63.1562 59.1246 63.4032 59.8237 63.4991 60.4911C63.5429 60.7954 63.6752 61.0954 63.6711 61.3965C63.6314 64.0747 63.2021 66.694 62.4664 69.2659C62.3413 69.7007 62.2527 70.146 62.1735 70.5208C62.1475 70.6471 62.0922 70.8051 62.0714 70.8819C62.0589 70.9293 62.0516 70.9767 62.0516 71.024C62.0516 71.0767 62.0589 71.1261 62.0704 71.1725C62.0922 71.2525 62.1443 71.3588 62.1766 71.4136C62.2079 71.4683 62.2538 71.5462 62.2767 71.5915C62.2902 71.6178 62.3048 71.643 62.3236 71.6693C62.4518 71.8547 62.5977 72.0199 62.7446 72.1863C62.8301 72.2821 62.8405 72.4484 62.7623 72.5495C62.6998 72.6305 62.6341 72.7106 62.5674 72.7906C62.5164 72.8526 62.4809 72.9201 62.458 72.9906C62.4195 73.1117 62.4174 73.2317 62.408 73.2527C62.4007 73.2675 62.3965 73.2812 62.3965 73.2938C62.3965 73.4328 62.4632 73.6359 62.5685 73.6991C63.0604 73.9928 63.5679 74.2581 64.1077 74.5487C64.2202 74.6087 64.2275 74.7192 64.1233 74.795C64.0764 74.8287 64.0306 74.8624 63.9826 74.8972C63.8784 74.9719 63.8711 75.1046 63.9753 75.1782C64.5141 75.5583 65.0915 75.5372 65.698 75.4404C65.9835 75.3951 66.2826 75.4414 66.5744 75.4383C66.7036 75.4372 66.8829 75.4656 66.9516 75.3941C67.3633 74.9708 67.8708 74.9266 68.42 74.8614C69.1797 74.7708 69.8446 73.8286 69.7393 73.0496C69.6007 72.0284 69.8946 71.2567 70.6032 70.4797C71.1972 69.8291 71.4984 68.9111 71.9632 68.1321C72.0851 67.9268 72.3102 67.7383 72.5301 67.6499C72.8771 67.511 73.1783 67.6425 73.2763 68.0415C73.5139 69.0154 73.9047 69.9881 73.9276 70.9682C73.962 72.4358 73.7817 73.9149 73.6035 75.3772C73.4034 77.0185 72.5906 78.4071 71.6829 79.7557C70.6616 81.2727 70.077 82.9129 70.3959 84.8132C70.5688 85.8438 70.5886 86.9018 70.6345 87.9493C70.6428 88.1483 70.5042 88.4515 70.3417 88.5452C67.4352 90.2253 64.9049 92.4077 62.3642 94.5797C61.9401 94.9429 61.4503 95.2292 61.0366 95.603C59.9569 96.5756 59.8204 97.8338 60.0695 99.1771C60.1258 99.4792 60.2081 99.8014 60.3686 100.055C61.1231 101.258 61.1564 102.53 60.8292 103.862C60.3206 105.933 59.8527 108.014 59.3212 110.078C59.167 110.678 59.2379 111.207 59.539 111.696C60.23 112.818 60.6812 114.026 60.9136 115.319C61.1085 116.405 61.6941 117.286 62.3153 118.159C62.7967 118.838 63.2198 119.557 63.6846 120.247C64.0723 120.823 64.4568 120.982 65.0581 120.658C65.55 120.391 66.069 120.034 66.3701 119.579C67.2143 118.299 67.4383 116.849 67.1507 115.339C67.0944 115.045 66.9735 114.714 66.7734 114.507C66.0231 113.734 65.253 112.977 64.4412 112.27C63.9107 111.808 63.7284 111.106 64.0275 110.467C64.2025 110.093 64.3182 109.67 64.362 109.258C64.411 108.792 64.3849 108.315 64.3776 107.765C64.3755 107.637 64.462 107.591 64.5652 107.666C65.3228 108.223 65.8814 108.855 66.0117 109.714C66.2472 111.272 67.2028 111.96 68.5899 112.401C71.0065 113.168 73.4263 113.782 75.99 113.691C77.1759 113.649 77.1884 113.718 77.1009 112.504C76.9737 110.737 76.1067 109.3 75.0552 107.96C74.9405 107.813 74.6977 107.689 74.5154 107.69C73.9391 107.695 73.3607 107.74 72.7906 107.822C72.6114 107.849 72.4436 108.032 72.2925 108.168C72.0101 108.422 71.7381 108.69 71.4421 108.975C71.3494 109.065 71.2306 109.06 71.1743 108.969C71.1316 108.899 71.1024 108.851 71.0816 108.798C70.6814 107.779 70.6824 107.76 69.6434 107.761C68.865 107.762 68.2626 107.369 67.9062 106.773C67.0934 105.415 66.3743 103.994 65.6615 102.578C65.5635 102.384 65.648 102.023 65.7688 101.808C65.9846 101.425 66.2576 101.054 66.5765 100.754C66.763 100.578 67.083 100.475 67.3477 100.467C69.6935 100.377 72.0445 100.381 74.3851 100.227C76.5121 100.087 78.6297 99.794 80.7483 99.5445C81.0161 99.5129 81.3444 99.3908 81.509 99.196C82.0645 98.5391 82.6898 98.556 83.3796 98.8813C84.7396 99.5203 86.0766 100.213 87.4575 100.801C89.4396 101.649 91.4655 102.39 93.4497 103.233C97.2649 104.855 101.359 105.323 105.349 106.222C106.191 106.412 107.061 106.476 107.922 106.571C108.312 106.614 108.591 106.784 108.689 107.16C108.825 107.681 109.011 108.215 109.012 108.743C109.017 110.666 109.575 112.408 110.505 114.06C110.828 114.632 111.144 115.217 111.367 115.832C111.864 117.197 111.633 118.469 110.718 119.597C108.93 121.803 106.837 123.694 104.714 125.553C104.061 126.126 103.405 126.699 102.799 127.321C102.589 127.535 102.433 127.888 102.411 128.19C102.29 129.919 102.114 131.634 101.593 133.297C101.219 134.492 101.726 135.535 102.205 136.572C102.613 137.458 103.035 138.336 103.508 139.335C103.563 139.449 103.677 139.467 103.764 139.373C104.297 138.786 104.796 138.276 105.239 137.718C106.144 136.58 106.731 135.265 107.107 133.868C107.22 133.445 107.131 132.939 107.035 132.492C106.916 131.93 106.647 131.398 106.541 130.835C106.504 130.64 106.719 130.245 106.896 130.187C107.614 129.954 107.874 129.341 108.284 128.807C109.072 127.784 109.98 126.855 110.865 125.911C111.811 124.899 112.938 124.146 114.168 123.503C115.48 122.817 116.739 122.02 117.98 121.206C118.289 121.005 118.495 120.644 118.745 120.297C118.82 120.191 118.982 120.15 119.095 120.209C120.076 120.701 120.815 121.557 121.32 122.726C122.322 125.039 121.916 127.224 120.867 129.348C119.914 131.277 118.867 133.158 117.853 135.056C117.232 136.219 116.249 137.02 115.204 137.763C114.911 137.971 114.607 138.211 114.412 138.508C113.065 140.571 111.996 142.783 110.999 145.032C110.734 145.629 110.78 145.807 111.437 145.893C112.251 146.003 113.085 146.024 113.906 145.987C115.314 145.924 116.647 145.576 117.755 144.624C118.594 143.904 119.076 143.018 118.98 141.871C118.973 141.812 118.978 141.753 118.965 141.696C118.742 140.648 119.003 139.939 120.134 139.595C120.99 139.334 121.452 138.536 121.83 137.764C122.922 135.536 123.94 133.272 125.063 131.061C125.941 129.333 126.913 127.655 127.875 125.975C128.511 124.866 129.182 123.775 129.878 122.704C130.552 121.663 130.376 120.731 129.747 119.735C128.909 118.412 128.166 117.029 127.378 115.674C126.679 114.473 126.998 113.251 127.739 112.347C129.623 110.047 130.493 107.244 131.79 104.655C131.891 104.453 131.954 104.229 132.06 104.019C132.118 103.904 132.167 103.922 132.15 104.049C132.129 104.193 132.112 104.336 132.119 104.478C132.196 106.287 132.305 108.097 132.359 109.908C132.383 110.762 132.212 111.629 132.304 112.471C132.442 113.739 132.728 114.991 132.954 116.248C133.006 116.533 133.063 116.817 133.165 117.096C133.21 117.217 133.244 117.206 133.232 117.078C133.215 116.92 133.2 116.76 133.185 116.601C133.171 116.474 133.187 116.472 133.216 116.596C133.706 118.635 134.153 120.683 135.262 122.501C135.327 122.611 135.351 122.599 135.311 122.478C135.292 122.425 135.274 122.37 135.254 122.316C135.213 122.194 135.245 122.176 135.325 122.276C135.955 123.06 136.563 123.821 137.244 124.669C137.324 124.77 137.41 124.748 137.437 124.621C137.452 124.545 137.464 124.48 137.477 124.415C137.501 124.289 137.617 124.23 137.732 124.282C138.032 124.416 138.318 124.534 138.579 124.699C138.87 124.886 139.149 125.117 139.433 125.365C139.53 125.449 139.608 125.445 139.608 125.355C139.608 125.266 139.649 125.2 139.697 125.216C139.735 125.23 139.749 125.24 139.775 125.262C141.186 126.419 142.41 127.733 143.386 129.31C144.026 130.348 144.864 131.307 145.782 132.104C146.126 132.403 146.412 132.753 146.794 133.032C146.898 133.108 146.934 133.071 146.87 132.959C146.777 132.8 146.684 132.639 146.591 132.48C146.526 132.37 146.49 132.266 146.511 132.248C146.531 132.231 146.616 132.296 146.699 132.393C146.946 132.681 147.198 132.978 147.485 133.31C147.568 133.409 147.616 133.383 147.592 133.257C147.589 133.249 147.588 133.241 147.587 133.234C147.563 133.108 147.626 133.067 147.731 133.141C148.34 133.583 148.926 134.009 149.553 134.464C149.656 134.537 149.748 134.494 149.755 134.366C149.772 134.124 149.785 133.929 149.796 133.751C149.804 133.623 149.851 133.512 149.898 133.506C149.945 133.499 150.048 133.573 150.129 133.674C150.147 133.697 150.166 133.721 150.185 133.745C150.264 133.847 150.342 133.922 150.359 133.917C150.377 133.912 150.348 133.811 150.299 133.692C150.215 133.488 150.132 133.284 150.047 133.08C149.998 132.961 149.977 132.854 150.001 132.841C150.025 132.828 150.107 132.901 150.183 133.004C150.314 133.183 150.445 133.361 150.578 133.539C150.654 133.642 150.731 133.719 150.75 133.71C150.769 133.699 150.757 133.593 150.725 133.469C150.611 133.07 150.504 132.672 150.387 132.238Z" fill="#808000"/>
</svg>
