<svg width="23" height="23" viewBox="0 0 23 23" fill="none" xmlns="http://www.w3.org/2000/svg">
<path d="M22.0709 10.5709H0.929074C0.415977 10.5709 0 10.9869 0 11.5C0 12.0131 0.415977 12.4291 0.929074 12.4291H22.0709C22.5841 12.4291 23 12.0131 23 11.5C23 10.9869 22.5841 10.5709 22.0709 10.5709Z" fill="#DCDCDC"/>
<path d="M22.0709 3.52362H0.929074C0.415977 3.52362 0 3.9396 0 4.4527C0 4.96579 0.415977 5.38177 0.929074 5.38177H22.0709C22.5841 5.38177 23 4.96579 23 4.4527C23 3.9396 22.5841 3.52362 22.0709 3.52362Z" fill="#DCDCDC"/>
<path d="M22.0709 17.6182H0.929074C0.415977 17.6182 0 18.0342 0 18.5473C0 19.0604 0.415977 19.4764 0.929074 19.4764H22.0709C22.5841 19.4764 23 19.0604 23 18.5473C23 18.0342 22.5841 17.6182 22.0709 17.6182Z" fill="#DCDCDC"/>
</svg>
