<svg width="191" height="190" viewBox="0 0 191 190" fill="none" xmlns="http://www.w3.org/2000/svg">
<path d="M95 190C147.467 190 190 147.467 190 95C190 42.5329 147.467 0 95 0C42.5329 0 0 42.5329 0 95C0 147.467 42.5329 190 95 190Z" fill="#E8DDD9" fill-opacity="0.53"/>
<path d="M96 174C139.63 174 175 138.63 175 95C175 51.3695 139.63 16 96 16C52.3695 16 17 51.3695 17 95C17 138.63 52.3695 174 96 174Z" stroke="#808000" stroke-width="2"/>
<path d="M128.055 58.25H130.563C131.702 58.25 132.625 57.3368 132.625 56.2083V48.0417C132.625 46.9132 131.702 46 130.562 46H119.011C116.314 46 113.782 47.3041 112.242 49.4851C110.703 51.6664 110.338 54.4617 111.263 56.9639C114.62 66.0399 120.25 83.3143 120.25 97.0417C120.25 113.166 110.536 123.583 95.5 123.583C80.4644 123.583 70.75 113.166 70.75 97.0417C70.75 83.3323 76.3835 66.0458 79.7431 56.962C80.6676 54.4579 80.301 51.6645 78.7622 49.4851C77.2215 47.3019 74.6897 46 71.9927 46H60.4376C59.2975 46 58.375 46.9132 58.375 48.0417V56.2085C58.375 57.3368 59.2975 58.25 60.4376 58.25H62.9452C57.4627 67.6469 50.1251 84.5504 50.1251 101.125C50.1251 126.772 73.5881 144 95.5002 144C117.412 144 140.875 126.772 140.875 101.125C140.875 84.5504 133.537 67.6469 128.055 58.25ZM60.4376 103.167C59.2985 103.167 58.375 102.253 58.375 101.125C58.375 99.9972 59.2985 99.0833 60.4376 99.0833C61.5766 99.0833 62.4999 99.9972 62.4999 101.125C62.4999 102.253 61.5764 103.167 60.4376 103.167ZM64.5625 78.6667C63.4234 78.6667 62.4999 77.7526 62.4999 76.625C62.4999 75.4972 63.4234 74.5833 64.5625 74.5833C65.7016 74.5833 66.6251 75.4972 66.6251 76.625C66.6251 77.7526 65.7016 78.6667 64.5625 78.6667ZM68.6874 123.583C67.5484 123.583 66.6249 122.669 66.6249 121.542C66.6249 120.414 67.5484 119.5 68.6874 119.5C69.8265 119.5 70.75 120.414 70.75 121.542C70.75 122.669 69.8265 123.583 68.6874 123.583ZM95.5 135.833C94.3609 135.833 93.4374 134.919 93.4374 133.792C93.4374 132.664 94.3609 131.75 95.5 131.75C96.6391 131.75 97.5626 132.664 97.5626 133.792C97.5626 134.919 96.6391 135.833 95.5 135.833ZM122.313 123.583C121.173 123.583 120.25 122.669 120.25 121.542C120.25 120.414 121.173 119.5 122.313 119.5C123.452 119.5 124.375 120.414 124.375 121.542C124.375 122.669 123.451 123.583 122.313 123.583ZM126.438 78.6667C125.298 78.6667 124.375 77.7526 124.375 76.625C124.375 75.4972 125.298 74.5833 126.438 74.5833C127.577 74.5833 128.5 75.4972 128.5 76.625C128.5 77.7526 127.577 78.6667 126.438 78.6667ZM130.562 103.167C129.423 103.167 128.5 102.253 128.5 101.125C128.5 99.9972 129.423 99.0833 130.562 99.0833C131.702 99.0833 132.625 99.9972 132.625 101.125C132.625 102.253 131.702 103.167 130.562 103.167Z" fill="#808000"/>
</svg>
