<svg width="192" height="64" viewBox="0 0 192 64" fill="none" xmlns="http://www.w3.org/2000/svg">
<path d="M24.064 49.088C21.9733 49.088 20.352 48.5973 19.2 47.616C18.0907 46.6347 17.536 45.3547 17.536 43.776C17.536 42.8373 17.7707 41.792 18.24 40.64C19.4347 42.176 20.864 42.944 22.528 42.944C24.6613 42.944 26.24 41.8133 27.264 39.552C28.3307 37.248 28.864 34.6453 28.864 31.744C28.864 26.496 26.8373 23.872 22.784 23.872C21.632 23.872 20.608 24.0853 19.712 24.512L14.656 48H5.44L14.656 5.248C11.968 5.33333 9.89867 6.35733 8.448 8.32C7.04 10.2827 6.336 13.6747 6.336 18.496C6.336 20.0747 6.48533 21.184 6.784 21.824C7.08267 22.4213 7.232 22.7627 7.232 22.848C4.928 22.848 3.2 22.3787 2.048 21.44C0.938667 20.4587 0.384 18.8587 0.384 16.64C0.384 13.6107 1.13067 10.8587 2.624 8.384C4.11733 5.86666 6.48533 3.84 9.728 2.304C13.0133 0.767996 17.1733 -3.8147e-06 22.208 -3.8147e-06C23.1893 -3.8147e-06 24.704 0.106663 26.752 0.319996C30.6347 0.618664 33.3013 0.767998 34.752 0.767998C37.0133 0.767998 38.9333 0.511997 40.512 -3.8147e-06C40.4693 0.213329 40.32 1.06666 40.064 2.56C39.808 4.05333 39.1893 5.29067 38.208 6.272C37.2693 7.21066 36.0107 7.68 34.432 7.68C31.3173 7.68 27.712 7.25333 23.616 6.4L20.416 21.248C22.9333 20.48 25.1093 20.096 26.944 20.096C30.528 20.096 33.216 21.184 35.008 23.36C36.8427 25.4933 37.76 28.352 37.76 31.936C37.76 34.2827 37.248 36.8 36.224 39.488C35.2427 42.1333 33.728 44.3947 31.68 46.272C29.632 48.1493 27.0933 49.088 24.064 49.088ZM48.4925 48.384C46.0605 48.384 44.0338 47.552 42.4125 45.888C40.7912 44.224 39.9805 41.6213 39.9805 38.08C39.9805 34.9227 40.5992 31.616 41.8365 28.16C43.1165 24.6613 44.9938 21.7173 47.4685 19.328C49.9858 16.896 52.9725 15.68 56.4285 15.68C58.1778 15.68 59.4792 15.9787 60.3325 16.576C61.1858 17.1733 61.6125 17.9627 61.6125 18.944V19.392L62.3165 16H71.5325L66.9245 37.76C66.7538 38.4 66.6685 39.0827 66.6685 39.808C66.6685 41.6427 67.5432 42.56 69.2925 42.56C70.4872 42.56 71.5112 42.0053 72.3645 40.896C73.2605 39.7867 73.9645 38.336 74.4765 36.544H77.1645C75.5858 41.152 73.6232 44.288 71.2765 45.952C68.9725 47.5733 66.6472 48.384 64.3005 48.384C62.5085 48.384 61.0578 47.8933 59.9485 46.912C58.8818 45.888 58.2418 44.416 58.0285 42.496C56.7912 44.2453 55.4045 45.6747 53.8685 46.784C52.3752 47.8507 50.5832 48.384 48.4925 48.384ZM52.6525 42.176C53.7192 42.176 54.7645 41.6853 55.7885 40.704C56.8552 39.68 57.5805 38.2933 57.9645 36.544L61.0365 22.08C61.0365 21.5253 60.8232 20.992 60.3965 20.48C59.9698 19.9253 59.3085 19.648 58.4125 19.648C56.7058 19.648 55.1698 20.6507 53.8045 22.656C52.4392 24.6187 51.3725 27.008 50.6045 29.824C49.8365 32.5973 49.4525 35.0507 49.4525 37.184C49.4525 39.3173 49.7512 40.6827 50.3485 41.28C50.9885 41.8773 51.7565 42.176 52.6525 42.176ZM83.076 48.384C79.9187 48.384 77.4653 47.7867 75.716 46.592C74.0093 45.3973 73.156 43.584 73.156 41.152C73.156 39.5733 73.5187 38.208 74.244 37.056C74.9267 35.8613 75.7587 34.88 76.74 34.112C77.7213 33.3013 79.0227 32.384 80.644 31.36C82.692 30.1227 84.2067 29.0133 85.188 28.032C86.212 27.008 86.724 25.7493 86.724 24.256C86.724 23.3173 86.468 22.592 85.956 22.08C85.4867 21.5253 84.7613 21.248 83.78 21.248C82.372 21.248 81.1133 21.7813 80.004 22.848C78.8947 23.9147 77.8493 25.6 76.868 27.904H73.796C75.204 23.8933 76.996 20.8213 79.172 18.688C81.348 16.512 84.2067 15.424 87.748 15.424C90.2227 15.424 92.2707 16.0213 93.892 17.216C95.556 18.4107 96.388 20.224 96.388 22.656C96.388 24.4907 96.004 26.0907 95.236 27.456C94.468 28.8213 93.5293 29.952 92.42 30.848C91.3107 31.7013 89.924 32.64 88.26 33.664C86.3827 34.816 85.0173 35.8187 84.164 36.672C83.3107 37.4827 82.884 38.464 82.884 39.616C82.884 41.8773 84.3987 43.008 87.428 43.008C89.348 43.008 91.1613 42.5173 92.868 41.536C94.6173 40.5547 96.4947 38.8907 98.5 36.544H100.676C98.372 40.2133 95.7907 43.1147 92.932 45.248C90.116 47.3387 86.8307 48.384 83.076 48.384ZM104.836 48.384C102.788 48.384 101.124 47.744 99.844 46.464C98.6067 45.184 97.988 43.264 97.988 40.704C97.988 39.6373 98.1587 38.2507 98.5 36.544L102.852 16H112.068L107.46 37.76C107.332 38.4 107.268 38.9973 107.268 39.552C107.268 41.3013 107.908 42.176 109.188 42.176C110.383 42.176 111.407 41.6853 112.26 40.704C113.113 39.68 113.796 38.2933 114.308 36.544L118.66 16H127.876L123.268 37.76C123.097 38.4 123.012 39.0827 123.012 39.808C123.012 40.6613 123.204 41.28 123.588 41.664C124.015 42.0053 124.697 42.176 125.636 42.176C126.831 42.176 127.855 41.664 128.708 40.64C129.604 39.616 130.308 38.2507 130.82 36.544H133.508C131.929 41.152 129.967 44.288 127.62 45.952C125.316 47.5733 122.991 48.384 120.644 48.384C118.809 48.384 117.337 47.872 116.228 46.848C115.161 45.824 114.521 44.3093 114.308 42.304C112.857 44.6507 111.321 46.2507 109.7 47.104C108.121 47.9573 106.5 48.384 104.836 48.384ZM135.677 13.632H144.893L143.869 18.432C146.002 16.5973 148.498 15.68 151.357 15.68C153.746 15.68 155.645 16.4693 157.053 18.048C158.461 19.6267 159.165 22.208 159.165 25.792C159.165 29.1627 158.674 32.576 157.693 36.032C156.711 39.4453 155.047 42.368 152.701 44.8C150.354 47.1893 147.261 48.384 143.421 48.384C140.69 48.384 138.877 47.616 137.981 46.08L134.653 61.696L124.988 64L135.677 13.632ZM141.437 42.816C143.485 42.816 145.17 41.856 146.493 39.936C147.858 38.016 148.839 35.7333 149.437 33.088C150.077 30.4 150.397 27.904 150.397 25.6C150.397 22.0587 149.33 20.288 147.197 20.288C146.429 20.288 145.639 20.5653 144.829 21.12C144.061 21.6747 143.378 22.4427 142.781 23.424L139.005 41.344C139.346 42.3253 140.157 42.816 141.437 42.816ZM168.43 48.384C165.998 48.384 163.971 47.552 162.35 45.888C160.729 44.224 159.918 41.6213 159.918 38.08C159.918 34.9227 160.537 31.616 161.774 28.16C163.054 24.6613 164.931 21.7173 167.406 19.328C169.923 16.896 172.91 15.68 176.366 15.68C178.115 15.68 179.417 15.9787 180.27 16.576C181.123 17.1733 181.55 17.9627 181.55 18.944V19.392L182.254 16H191.47L186.862 37.76C186.691 38.4 186.606 39.0827 186.606 39.808C186.606 40.6613 186.798 41.28 187.182 41.664C187.609 42.0053 188.291 42.176 189.23 42.176C189.827 42.176 190.297 42.0907 190.638 41.92C189.699 44.3093 188.803 45.9947 187.95 46.976C187.097 47.9147 185.859 48.384 184.238 48.384C182.489 48.384 181.059 47.872 179.95 46.848C178.883 45.7813 178.222 44.3093 177.966 42.432C175.363 46.4 172.185 48.384 168.43 48.384ZM172.59 42.176C173.657 42.176 174.702 41.6853 175.726 40.704C176.793 39.68 177.518 38.2933 177.902 36.544L180.974 22.08C180.974 21.5253 180.761 20.992 180.334 20.48C179.907 19.9253 179.246 19.648 178.35 19.648C176.643 19.648 175.107 20.6507 173.742 22.656C172.377 24.6187 171.31 27.008 170.542 29.824C169.774 32.5973 169.39 35.0507 169.39 37.184C169.39 39.3173 169.689 40.6827 170.286 41.28C170.926 41.8773 171.694 42.176 172.59 42.176Z" fill="#808000"/>
</svg>
