<svg width="168" height="56" viewBox="0 0 168 56" fill="none" xmlns="http://www.w3.org/2000/svg">
<path d="M21.056 42.952C19.2267 42.952 17.808 42.5227 16.8 41.664C15.8293 40.8053 15.344 39.6853 15.344 38.304C15.344 37.4827 15.5493 36.568 15.96 35.56C17.0053 36.904 18.256 37.576 19.712 37.576C21.5787 37.576 22.96 36.5867 23.856 34.608C24.7893 32.592 25.256 30.3147 25.256 27.776C25.256 23.184 23.4827 20.888 19.936 20.888C18.928 20.888 18.032 21.0747 17.248 21.448L12.824 42H4.76L12.824 4.592C10.472 4.66667 8.66133 5.56267 7.392 7.28C6.16 8.99733 5.544 11.9653 5.544 16.184C5.544 17.5653 5.67467 18.536 5.936 19.096C6.19733 19.6187 6.328 19.9173 6.328 19.992C4.312 19.992 2.8 19.5813 1.792 18.76C0.821333 17.9013 0.336 16.5013 0.336 14.56C0.336 11.9093 0.989333 9.50133 2.296 7.336C3.60267 5.13333 5.67467 3.36 8.512 2.016C11.3867 0.671997 15.0267 -3.33786e-06 19.432 -3.33786e-06C20.2907 -3.33786e-06 21.616 0.0933299 23.408 0.279996C26.8053 0.541331 29.1387 0.671998 30.408 0.671998C32.3867 0.671998 34.0667 0.447998 35.448 -3.33786e-06C35.4107 0.186663 35.28 0.93333 35.056 2.24C34.832 3.54667 34.2907 4.62933 33.432 5.488C32.6107 6.30933 31.5093 6.72 30.128 6.72C27.4027 6.72 24.248 6.34666 20.664 5.6L17.864 18.592C20.0667 17.92 21.9707 17.584 23.576 17.584C26.712 17.584 29.064 18.536 30.632 20.44C32.2373 22.3067 33.04 24.808 33.04 27.944C33.04 29.9973 32.592 32.2 31.696 34.552C30.8373 36.8667 29.512 38.8453 27.72 40.488C25.928 42.1307 23.7067 42.952 21.056 42.952ZM42.4309 42.336C40.3029 42.336 38.5296 41.608 37.1109 40.152C35.6923 38.696 34.9829 36.4187 34.9829 33.32C34.9829 30.5573 35.5243 27.664 36.6069 24.64C37.7269 21.5787 39.3696 19.0027 41.5349 16.912C43.7376 14.784 46.3509 13.72 49.3749 13.72C50.9056 13.72 52.0443 13.9813 52.7909 14.504C53.5376 15.0267 53.9109 15.7173 53.9109 16.576V16.968L54.5269 14H62.5909L58.5589 33.04C58.4096 33.6 58.3349 34.1973 58.3349 34.832C58.3349 36.4373 59.1003 37.24 60.6309 37.24C61.6763 37.24 62.5723 36.7547 63.3189 35.784C64.1029 34.8133 64.7189 33.544 65.1669 31.976H67.5189C66.1376 36.008 64.4203 38.752 62.3669 40.208C60.3509 41.6267 58.3163 42.336 56.2629 42.336C54.6949 42.336 53.4256 41.9067 52.4549 41.048C51.5216 40.152 50.9616 38.864 50.7749 37.184C49.6923 38.7147 48.4789 39.9653 47.1349 40.936C45.8283 41.8693 44.2603 42.336 42.4309 42.336ZM46.0709 36.904C47.0043 36.904 47.9189 36.4747 48.8149 35.616C49.7483 34.72 50.3829 33.5067 50.7189 31.976L53.4069 19.32C53.4069 18.8347 53.2203 18.368 52.8469 17.92C52.4736 17.4347 51.8949 17.192 51.1109 17.192C49.6176 17.192 48.2736 18.0693 47.0789 19.824C45.8843 21.5413 44.9509 23.632 44.2789 26.096C43.6069 28.5227 43.2709 30.6693 43.2709 32.536C43.2709 34.4027 43.5323 35.5973 44.0549 36.12C44.6149 36.6427 45.2869 36.904 46.0709 36.904ZM72.6915 42.336C69.9288 42.336 67.7822 41.8133 66.2515 40.768C64.7582 39.7227 64.0115 38.136 64.0115 36.008C64.0115 34.6267 64.3288 33.432 64.9635 32.424C65.5608 31.3787 66.2888 30.52 67.1475 29.848C68.0062 29.1387 69.1448 28.336 70.5635 27.44C72.3555 26.3573 73.6808 25.3867 74.5395 24.528C75.4355 23.632 75.8835 22.5307 75.8835 21.224C75.8835 20.4027 75.6595 19.768 75.2115 19.32C74.8008 18.8347 74.1662 18.592 73.3075 18.592C72.0755 18.592 70.9742 19.0587 70.0035 19.992C69.0328 20.9253 68.1182 22.4 67.2595 24.416H64.5715C65.8035 20.9067 67.3715 18.2187 69.2755 16.352C71.1795 14.448 73.6808 13.496 76.7795 13.496C78.9448 13.496 80.7368 14.0187 82.1555 15.064C83.6115 16.1093 84.3395 17.696 84.3395 19.824C84.3395 21.4293 84.0035 22.8293 83.3315 24.024C82.6595 25.2187 81.8382 26.208 80.8675 26.992C79.8968 27.7387 78.6835 28.56 77.2275 29.456C75.5848 30.464 74.3902 31.3413 73.6435 32.088C72.8968 32.7973 72.5235 33.656 72.5235 34.664C72.5235 36.6427 73.8488 37.632 76.4995 37.632C78.1795 37.632 79.7662 37.2027 81.2595 36.344C82.7902 35.4853 84.4328 34.0293 86.1875 31.976H88.0915C86.0755 35.1867 83.8168 37.7253 81.3155 39.592C78.8515 41.4213 75.9768 42.336 72.6915 42.336ZM91.7315 42.336C89.9395 42.336 88.4835 41.776 87.3635 40.656C86.2808 39.536 85.7395 37.856 85.7395 35.616C85.7395 34.6827 85.8888 33.4693 86.1875 31.976L89.9955 14H98.0595L94.0275 33.04C93.9155 33.6 93.8595 34.1227 93.8595 34.608C93.8595 36.1387 94.4195 36.904 95.5395 36.904C96.5848 36.904 97.4808 36.4747 98.2275 35.616C98.9742 34.72 99.5715 33.5067 100.02 31.976L103.828 14H111.892L107.86 33.04C107.71 33.6 107.636 34.1973 107.636 34.832C107.636 35.5787 107.804 36.12 108.14 36.456C108.513 36.7547 109.11 36.904 109.932 36.904C110.977 36.904 111.873 36.456 112.62 35.56C113.404 34.664 114.02 33.4693 114.467 31.976H116.82C115.438 36.008 113.721 38.752 111.668 40.208C109.652 41.6267 107.617 42.336 105.564 42.336C103.958 42.336 102.67 41.888 101.7 40.992C100.766 40.096 100.206 38.7707 100.02 37.016C98.7502 39.0693 97.4062 40.4693 95.9875 41.216C94.6062 41.9627 93.1875 42.336 91.7315 42.336ZM118.717 11.928H126.781L125.885 16.128C127.752 14.5227 129.936 13.72 132.437 13.72C134.528 13.72 136.189 14.4107 137.421 15.792C138.653 17.1733 139.269 19.432 139.269 22.568C139.269 25.5173 138.84 28.504 137.981 31.528C137.122 34.5147 135.666 37.072 133.613 39.2C131.56 41.2907 128.853 42.336 125.493 42.336C123.104 42.336 121.517 41.664 120.733 40.32L117.821 53.984L109.365 56L118.717 11.928ZM123.757 37.464C125.549 37.464 127.024 36.624 128.181 34.944C129.376 33.264 130.234 31.2667 130.757 28.952C131.317 26.6 131.597 24.416 131.597 22.4C131.597 19.3013 130.664 17.752 128.797 17.752C128.125 17.752 127.434 17.9947 126.725 18.48C126.053 18.9653 125.456 19.6373 124.933 20.496L121.629 36.176C121.928 37.0347 122.637 37.464 123.757 37.464ZM147.376 42.336C145.248 42.336 143.475 41.608 142.056 40.152C140.638 38.696 139.928 36.4187 139.928 33.32C139.928 30.5573 140.47 27.664 141.552 24.64C142.672 21.5787 144.315 19.0027 146.48 16.912C148.683 14.784 151.296 13.72 154.32 13.72C155.851 13.72 156.99 13.9813 157.736 14.504C158.483 15.0267 158.856 15.7173 158.856 16.576V16.968L159.472 14H167.536L163.504 33.04C163.355 33.6 163.28 34.1973 163.28 34.832C163.28 35.5787 163.448 36.12 163.784 36.456C164.158 36.7547 164.755 36.904 165.576 36.904C166.099 36.904 166.51 36.8293 166.808 36.68C165.987 38.7707 165.203 40.2453 164.456 41.104C163.71 41.9253 162.627 42.336 161.208 42.336C159.678 42.336 158.427 41.888 157.456 40.992C156.523 40.0587 155.944 38.7707 155.72 37.128C153.443 40.6 150.662 42.336 147.376 42.336ZM151.016 36.904C151.95 36.904 152.864 36.4747 153.76 35.616C154.694 34.72 155.328 33.5067 155.664 31.976L158.352 19.32C158.352 18.8347 158.166 18.368 157.792 17.92C157.419 17.4347 156.84 17.192 156.056 17.192C154.563 17.192 153.219 18.0693 152.024 19.824C150.83 21.5413 149.896 23.632 149.224 26.096C148.552 28.5227 148.216 30.6693 148.216 32.536C148.216 34.4027 148.478 35.5973 149 36.12C149.56 36.6427 150.232 36.904 151.016 36.904Z" fill="#808000"/>
</svg>
